<?xml version="1.0" encoding="UTF-8"?>
<svg xmlns="http://www.w3.org/2000/svg" viewBox="0 0 64 64" role="img" aria-label="Gateway Post Office">
  <defs>
    <linearGradient id="g" x1="8" y1="8" x2="56" y2="56" gradientUnits="userSpaceOnUse">
      <stop offset="0" stop-color="#4cc9f0"/>
      <stop offset="1" stop-color="#6d5efc"/>
    </linearGradient>
    <filter id="s" x="-20%" y="-20%" width="140%" height="140%">
      <feDropShadow dx="0" dy="2" stdDeviation="2" flood-color="#000" flood-opacity="0.45"/>
    </filter>
  </defs>
  <rect x="6" y="6" width="52" height="52" rx="14" fill="#0b0d10" stroke="rgba(76,201,240,0.35)" stroke-width="2"/>
  <g filter="url(#s)">
    <path d="M18 26c0-3 2.4-5.5 5.5-5.5h17c3 0 5.5 2.5 5.5 5.5v15c0 3-2.5 5.5-5.5 5.5h-17C20.4 46.5 18 44 18 41V26z" fill="#12161c" stroke="url(#g)" stroke-width="2"/>
    <path d="M20 27l12 9c0.7 0.5 1.7 0.5 2.4 0l12-9" fill="none" stroke="url(#g)" stroke-width="2.2" stroke-linecap="round" stroke-linejoin="round"/>
    <path d="M22 41l8-6" fill="none" stroke="rgba(76,201,240,0.35)" stroke-width="2" stroke-linecap="round"/>
    <path d="M42 41l-8-6" fill="none" stroke="rgba(76,201,240,0.35)" stroke-width="2" stroke-linecap="round"/>
  </g>
</svg>

